<svg xmlns="http://www.w3.org/2000/svg" viewBox="0 0 612 612">
  <path fill="#fff" d="M355.187-.082L72.65 57.715.173 173.09l-.172.133V529.54L305.423 612l305.424-82.46V207.396l-.24-.63L612 179.162 552.168 60.95l-148.496 39.88-81.07-20.472L355.195-.048zm-44.46 34.465L290.96 79.88 54.795 143.637 95 82.257l215.726-47.874zM526.31 99.91l40.544 80.104-236.743 63.918-29.787-81.13 225.986-62.89zm-220.895 7.59l37.8 9.523-94.69 25.426 40.624 103.758L40.4 179.048 305.416 107.5zM40.397 220.28l244.658 66.052v278.842l-244.418-65.99-.24-278.904zm530.038 0l-.24 278.904-244.417 65.99V286.894l193.97-52.926 50.686-13.69z"/>
</svg>
