<svg xmlns="http://www.w3.org/2000/svg" version="1.1" style="display: none;">
  <defs>
    <g id="build">
      <path class="brand-fill" d="M23.5,10h-2.84c-0.211-0.911-0.575-1.762-1.044-2.543l4.05-5.014c0.521-0.644,0.42-1.589-0.225-2.109
        c-0.645-0.521-1.588-0.421-2.109,0.225L17.624,5.15C16.582,4.292,15.355,3.652,14,3.34V0.5C14,0.224,13.776,0,13.5,0h-3
        C10.224,0,10,0.224,10,0.5v2.856C9.211,3.555,8.335,3.809,7.67,4.132L5.636,2.102c-0.195-0.196-0.512-0.196-0.707,0L2.101,4.929
        c-0.195,0.195-0.195,0.512,0,0.707L4.133,7.67C3.81,8.332,3.555,9.21,3.355,10H0.5C0.224,10,0,10.224,0,10.5v3
        C0,13.776,0.224,14,0.5,14h2.855c0.201,0.791,0.456,1.668,0.778,2.331l-2.032,2.034c-0.195,0.195-0.195,0.511,0,0.707l2.828,2.828
        c0.195,0.195,0.512,0.195,0.707,0l2.032-2.034c0.663,0.323,1.54,0.579,2.332,0.78V23.5c0,0.276,0.224,0.5,0.5,0.5h3
        c0.276,0,0.5-0.224,0.5-0.5v-2.854c0.791-0.201,1.668-0.456,2.33-0.778l2.034,2.032c0.195,0.195,0.512,0.195,0.707,0l2.828-2.828
        c0.195-0.195,0.195-0.512,0-0.707l-2.032-2.033c0.322-0.663,0.578-1.54,0.778-2.331H23.5c0.276,0,0.5-0.224,0.5-0.5v-3
        C24,10.224,23.776,10,23.5,10z M12.38,14.814C12.289,14.925,12.155,15,12,15c-0.148,0-0.277-0.066-0.368-0.168l-4.005-4.5
        C7.443,10.126,7.461,9.81,7.668,9.627C7.873,9.442,8.19,9.461,8.373,9.668l3.608,4.059L22.111,1.186
        c0.174-0.215,0.489-0.249,0.703-0.075c0.215,0.174,0.249,0.488,0.075,0.703L12.38,14.814z"/>
    </g>
    <g id="framework">
      <path class="brand-fill" d="M17.5,11c-3.584,0-6.5,2.916-6.5,6.5s2.916,6.5,6.5,6.5s6.5-2.916,6.5-6.5S21.084,11,17.5,11z M21.597,15.9l-4.096,4.357
        c-0.198,0.209-0.521,0.203-0.712,0.017l-2.926-2.841c-0.197-0.19-0.203-0.509-0.01-0.706c0.191-0.198,0.508-0.203,0.707-0.011
        l2.561,2.485l3.747-3.987c0.188-0.201,0.507-0.211,0.706-0.021C21.775,15.383,21.785,15.699,21.597,15.9z"/>
      <path class="brand-fill" d="M17.5,10c0.877,0,1.717,0.159,2.5,0.438V0.5C20,0.224,19.776,0,19.5,0H17v4h-2V0h-2v4h-2V0H9v4H7V0H5v4H3V0H0.5
        C0.224,0,0,0.224,0,0.5v20C0,20.776,0.224,21,0.5,21h10.372C10.317,19.954,10,18.764,10,17.5C10,13.365,13.365,10,17.5,10z"/>
    </g>
    <g id="heart">
      <path class="red-stroke" fill="none" stroke-linejoin="round" stroke-miterlimit="10" d="M12,22.394c0,0,10.5-8.128,10.5-15.82
        c0-7.692-9.316-8.284-10.5-0.591C10.816-1.71,1.5-1.119,1.5,7.166C1.5,15.45,12,22.394,12,22.394z"/>
    </g>
    <g id="like">
      <path class="brand-stroke" fill="none" stroke-linecap="round" stroke-linejoin="round" stroke-miterlimit="10" d="M20,15L20,15
        c0.828,0,1.5,0.672,1.5,1.5c0,0.829-0.672,1.5-1.5,1.5h-1c0.828,0,1.5,0.672,1.5,1.5c0,0.829-0.672,1-1.5,1c0,0-4,0-6.5,0
        c-2.851,0-3.5-0.5-7-1V11C7.95,11,12,6.5,12,2.5c0-1.581,2.188-2.17,3,0.719C15.5,5,14,8.5,14,8.5h8c0.828,0,1.5,0.672,1.5,1.5
        c0,0.829-0.672,2-1.5,2h-1c0.828,0,1.5,0.672,1.5,1.5c0,0.829-0.672,1.5-1.5,1.5H20"/>
        <rect class="brand-stroke" x="0.5" y="9.5" fill="none" stroke-linecap="round" stroke-linejoin="round" stroke-miterlimit="10" width="5" height="12"/>
        <path class="brand-stroke" d="M3.5,19C3.224,19,3,19.224,3,19.5S3.224,20,3.5,20S4,19.776,4,19.5S3.776,19,3.5,19L3.5,19z"/>
    </g>
    <g id="pages">
      <path class="brand-fill" d="M23.5,0h-23C0.224,0,0,0.224,0,0.5v23C0,23.776,0.224,24,0.5,24h15c0.139,0,0.264-0.056,0.354-0.147l7.998-7.999
        C23.943,15.764,24,15.639,24,15.5v-15C24,0.224,23.776,0,23.5,0z M9.745,16.167c-0.387,0.431-1.051,0.443-1.452,0.039l-3-3
        c-0.391-0.39-0.391-1.023,0-1.413c0.391-0.391,1.023-0.391,1.414,0l2.253,2.253l7.795-8.713c0.368-0.411,0.999-0.446,1.412-0.078
        c0.411,0.368,0.446,1.001,0.078,1.412L9.745,16.167z M16,22.293V16h6.293L16,22.293z"/>
    </g>
  </defs>
</svg>
