<svg xmlns="http://www.w3.org/2000/svg" viewBox="0 0 612 612">
  <path fill="#6e5494" d="M102 0C44.117-1.588-5.607 53.36 0 110.655c.09 134.857-.177 269.72.133 404.573C1.597 571.164 55.263 617.286 110.655 612c134.857-.09 269.72.177 404.573-.133 55.936-1.464 102.058-55.13 96.772-110.522-.09-134.857.177-269.72-.133-404.573C610.403 40.836 551.55-5.286 496.16 0H102zm235.25 120.44c-6.726 16.65-13.503 33.29-20.25 49.936l53.85 16.396 90.516-24.3c12.06 25.107 24.625 45.592 35.237 71.008-1.468 71.86-.218 143.878-.633 215.802l-179.594 48.5c-.094-74.748-.105-149.84-.25-224.375L280 214.232l56.69-17.866-35.847-10.694-159.06 45.985c51.28 13.854 102.562 27.71 153.843 41.563v224.375c-59.646-16.104-119.292-32.21-178.937-48.313.082-73.745-.168-147.696.124-221.312l45-71.656c58.48-11.96 116.958-23.917 175.437-35.875z"/>
</svg>
