<svg xmlns="http://www.w3.org/2000/svg" viewBox="0 0 612 612">
  <path fill="#9365B8" d="M102 0C45.9 0 0 45.9 0 102v408c0 56.1 45.9 102 102 102h408c56.1 0 102-45.9 102-102V102C612 45.9 566.1 0 510 0H102zm240.438 125.625v.03l-20.25 49.907 50.343 12.72 92.19-24.75 37.155 73.405-.844 17.125.126.375V454.47L311.53 505.686 121.876 454.47V233.22l.125-.064 45-71.656 175.438-35.875zm-27.625 21.406l-133.938 29.72-24.97 38.125 146.626-39.594 12.283-28.25zm133.875 40.69l-140.344 39.03 18.5 50.375 147-39.688-25.156-49.718zm-137.157 4.718l-164.56 44.406 154.436 41.72-25.22-64.44 58.814-15.78-23.47-5.906zm-164.56 70l.155 173.187 151.75 40.97V303.468L146.97 262.436zm329.092 0l-31.468 8.5-120.438 32.875v172.78l151.78-40.968.127-173.188z"/>
</svg>
