<svg xmlns="http://www.w3.org/2000/svg" viewBox="0 0 612 612">
  <path fill="#41A85F" d="M612 510c0 56.1-45.9 102-102 102H102C45.9 612 0 566.1 0 510V102C0 45.9 45.9 0 102 0h408c56.1 0 102 45.9 102 102v408z"/>
  <path fill="#FFF" d="M180.625 126.22c-4.337 0-7.875 3.552-7.875 7.905V244.5c0 4.353 3.538 7.875 7.875 7.875H448.72c4.367 0 7.874-3.522 7.874-7.875V134.125c0-4.353-3.523-7.906-7.875-7.906h-23.66v86.75c0 4.35-3.522 7.873-7.875 7.873-4.352 0-7.906-3.523-7.906-7.875v-86.75h-15.75v68.467c0 4.37-3.553 7.875-7.906 7.875s-7.875-3.506-7.875-7.875V126.22h-15.78v41.06c0 4.354-3.525 7.907-7.877 7.907-4.353 0-7.875-3.553-7.875-7.906v-41.06h-94.626c-4.353 0-7.907 3.553-7.907 7.906v29.625l-16.593-33.155c-1.325-2.68-4.082-4.375-7.063-4.375h-39.406zM156.97 268.155v47.313c0 17.41 14.167 31.53 31.56 31.53h79.19c5.503 0 9.424 5.592 7.31 10.844-5.093 12.742-7.686 26.155-7.686 39.875v59.686c0 26.1 21.228 47.313 47.312 47.313 26.084 0 47.313-21.214 47.313-47.314V397.72c0-13.753-2.58-27.15-7.69-39.876-2.066-5.204 1.81-10.844 7.344-10.844h79.187c17.41 0 31.548-14.12 31.564-31.53v-47.314H156.97zm157.686 173.47c8.705 0 15.78 7.09 15.78 15.78 0 8.705-7.075 15.75-15.78 15.75-8.69 0-15.75-7.045-15.75-15.75 0-8.69 7.06-15.78 15.75-15.78z"/>
</svg>
